<svg xmlns="http://www.w3.org/2000/svg" viewBox="0 0 32 32" width="32" height="32">
  <style>
    .bug-body { fill: #4A5568; } /* A dark slate color */
    .bug-accent { fill: #48BB78; } /* A success green color */
    @media (prefers-color-scheme: dark) {
      .bug-body { fill: #A0AEC0; } /* Lighter gray for dark mode */
      .bug-accent { fill: #68D391; }
    }
  </style>
  <path class="bug-body" d="M16 6 C 10 6, 6 12, 6 18 C 6 26, 10 30, 16 30 C 22 30, 26 26, 26 18 C 26 12, 22 6, 16 6 Z M 16 8 A 10 10 0 0 1 24 18 L 16 18 L 16 8 Z"/>
  <path class="bug-body" d="M15 8 L 15 18 L 8 18 A 10 10 0 0 1 15 8 Z"/>
  <circle class="bug-accent" cx="16" cy="14" r="3"/>
  <path class="bug-body" d="M12 4 L 10 2 M20 4 L 22 2 M8 10 L 4 8 M24 10 L 28 8 M8 22 L 4 24 M24 22 L 28 24" stroke-width="2.5" stroke-linecap="round" fill="none" stroke="currentColor"/>
</svg>